<?xml version="1.0" standalone="no"?>
<!DOCTYPE svg PUBLIC "-//W3C//DTD SVG 20010904//EN"
 "http://www.w3.org/TR/2001/REC-SVG-20010904/DTD/svg10.dtd">
<svg version="1.0" xmlns="http://www.w3.org/2000/svg"
 width="1536.000000pt" height="1536.000000pt" viewBox="0 0 1536.000000 1536.000000"
 preserveAspectRatio="xMidYMid meet">
<metadata>
Created by potrace 1.14, written by Peter Selinger 2001-2017
</metadata>
<g transform="translate(0.000000,1536.000000) scale(0.100000,-0.100000)"
fill="#000000" stroke="none">
<path d="M7349 15296 c-2 -2 -62 -7 -134 -10 -71 -4 -146 -9 -165 -11 -112 -9
-188 -17 -210 -20 -14 -2 -54 -7 -90 -10 -36 -3 -72 -7 -80 -10 -8 -2 -40 -7
-70 -11 -73 -8 -80 -9 -190 -29 -52 -9 -108 -19 -125 -22 -16 -2 -73 -13 -125
-24 -52 -11 -106 -22 -120 -24 -19 -3 -232 -55 -325 -79 -5 -2 -23 -6 -40 -11
-215 -55 -635 -197 -880 -297 -53 -21 -63 -26 -195 -84 -99 -43 -388 -180
-410 -193 -8 -5 -61 -33 -117 -63 -57 -29 -103 -56 -103 -60 0 -5 -5 -8 -12
-8 -10 0 -181 -96 -258 -145 -133 -84 -326 -210 -330 -215 -3 -3 -39 -27 -80
-55 -41 -27 -77 -52 -80 -55 -3 -3 -48 -37 -100 -75 -52 -39 -104 -77 -115
-86 -11 -10 -76 -63 -145 -119 -124 -101 -199 -165 -315 -270 -93 -84 -432
-426 -510 -514 -38 -44 -82 -92 -98 -107 -15 -16 -27 -30 -27 -33 0 -3 -12
-18 -26 -33 -14 -15 -73 -86 -130 -158 -57 -71 -110 -136 -116 -144 -7 -8 -40
-53 -74 -100 -34 -47 -71 -97 -82 -111 -44 -58 -265 -394 -269 -411 -3 -11 -9
-19 -13 -19 -4 0 -13 -13 -20 -30 -7 -16 -16 -30 -21 -30 -5 0 -9 -4 -9 -9 0
-5 -19 -42 -43 -83 -73 -122 -263 -477 -283 -528 -3 -8 -17 -40 -31 -70 -91
-199 -111 -244 -159 -362 -85 -207 -237 -642 -260 -743 -1 -5 -13 -50 -27
-100 -24 -83 -75 -280 -82 -315 -2 -8 -14 -69 -28 -135 -29 -134 -65 -329 -73
-390 -3 -22 -9 -62 -14 -90 -5 -27 -12 -75 -15 -105 -3 -30 -8 -72 -10 -92
-40 -326 -50 -507 -50 -898 0 -276 6 -462 20 -620 7 -89 15 -166 20 -210 3
-25 7 -63 10 -85 14 -119 40 -300 50 -345 0 -3 4 -27 9 -53 4 -27 9 -59 12
-70 2 -12 7 -35 10 -52 4 -26 52 -252 59 -280 1 -5 5 -23 9 -40 21 -89 86
-333 108 -405 68 -224 154 -476 184 -545 7 -16 25 -61 39 -100 74 -201 293
-666 404 -859 25 -44 54 -97 64 -116 39 -79 362 -587 387 -610 3 -3 28 -36 55
-75 27 -38 51 -72 54 -75 4 -3 26 -32 50 -65 43 -57 244 -308 266 -331 5 -6
33 -37 60 -69 28 -32 77 -88 110 -124 66 -73 465 -471 511 -511 104 -89 263
-225 284 -244 14 -13 66 -54 115 -92 50 -38 95 -72 100 -77 6 -4 37 -28 70
-53 33 -25 67 -50 75 -57 9 -7 43 -30 75 -52 33 -22 62 -43 63 -47 2 -5 10 -8
17 -8 7 0 15 -3 17 -7 2 -7 147 -106 200 -138 332 -201 584 -345 603 -345 5 0
16 -6 24 -13 15 -12 135 -70 333 -161 240 -110 656 -269 843 -322 33 -9 69
-20 80 -25 11 -4 54 -17 95 -29 41 -11 89 -24 105 -29 31 -10 148 -41 175 -46
8 -2 43 -10 77 -19 66 -17 432 -92 498 -101 22 -3 65 -10 95 -15 30 -6 75 -12
100 -15 25 -3 56 -8 70 -10 14 -2 54 -7 90 -10 36 -4 72 -8 80 -10 8 -2 53 -6
100 -10 47 -4 92 -9 101 -10 135 -26 989 -26 1234 -1 17 2 66 7 110 10 44 4
94 9 110 11 27 4 47 6 150 19 99 12 149 19 220 32 44 7 100 16 125 19 24 4 47
8 50 10 3 2 21 6 41 9 33 5 265 53 299 62 8 2 42 10 75 18 155 35 419 111 601
172 105 35 296 103 319 113 11 6 74 31 139 56 65 26 140 56 165 68 25 11 48
21 51 22 45 10 619 300 700 353 14 9 27 17 30 17 3 0 46 25 95 55 121 74 116
71 174 105 28 17 51 33 51 38 0 4 4 7 10 7 10 0 214 134 237 156 6 6 34 25 62
43 28 18 51 37 51 42 0 5 5 9 11 9 9 0 155 107 234 171 69 56 272 225 281 234
6 5 49 44 94 85 46 41 102 93 125 115 23 22 71 68 107 103 37 34 65 62 65 62
-1 0 41 44 93 98 52 54 127 134 165 177 39 43 77 86 85 94 8 9 33 39 55 66 22
27 50 59 63 71 12 12 22 24 22 28 0 4 10 17 23 30 12 13 31 36 42 51 11 15 41
54 67 86 57 72 205 276 278 384 30 44 58 82 62 83 5 2 8 8 8 14 0 5 13 28 29
51 71 105 231 371 231 386 0 5 3 11 7 13 20 8 300 567 360 718 8 19 20 49 28
65 78 176 254 670 280 790 3 11 9 31 15 45 7 19 83 303 95 355 1 6 6 28 10 50
5 22 10 42 10 45 1 3 5 23 9 45 4 22 12 54 17 71 6 18 12 47 14 65 2 19 13 84
24 144 22 116 36 198 47 280 3 28 8 58 9 67 2 9 7 48 10 85 4 37 9 70 10 73 2
3 6 50 10 105 4 55 9 107 10 116 19 99 27 839 12 1054 -12 185 -16 236 -21
284 -3 25 -8 71 -11 101 -5 54 -9 82 -21 170 -3 25 -7 59 -9 75 -2 17 -11 75
-20 130 -9 55 -18 111 -20 124 -2 13 -9 49 -16 80 -37 185 -52 255 -70 331
-12 47 -22 92 -24 100 -2 8 -13 51 -24 95 -12 44 -24 88 -26 98 -14 63 -112
370 -162 512 -65 184 -202 524 -233 577 -5 10 -10 25 -10 33 0 8 -4 15 -10 15
-5 0 -10 6 -10 14 0 36 -324 647 -433 815 -17 27 -54 86 -82 130 -27 44 -53
81 -57 81 -5 0 -8 6 -8 13 0 6 -10 23 -21 37 -11 14 -36 50 -56 80 -36 55
-258 355 -278 376 -5 6 -21 26 -35 44 -14 19 -43 55 -65 80 -22 26 -56 66 -76
91 -21 24 -48 56 -60 70 -13 14 -55 62 -94 105 -95 108 -430 442 -540 539 -49
44 -92 83 -95 86 -3 3 -52 45 -110 94 -58 48 -108 93 -112 99 -5 6 -8 7 -8 1
0 -6 -3 -6 -8 1 -4 6 -52 45 -107 88 -55 42 -107 83 -115 89 -8 7 -44 33 -80
57 -36 25 -67 48 -70 51 -3 3 -41 30 -85 59 -44 29 -81 57 -83 62 -2 4 -8 8
-13 8 -4 0 -49 27 -98 60 -50 33 -92 60 -95 60 -2 0 -32 18 -65 40 -33 22 -62
40 -65 40 -3 0 -38 20 -78 44 -223 135 -668 354 -938 461 -52 20 -104 41 -115
46 -150 64 -648 228 -775 254 -8 2 -15 4 -15 5 0 1 -7 3 -15 5 -8 2 -69 17
-135 33 -66 17 -131 33 -145 36 -14 2 -81 16 -150 30 -151 31 -204 41 -295 56
-38 6 -95 15 -125 20 -30 5 -82 12 -115 16 -33 3 -68 8 -78 10 -10 2 -46 6
-80 9 -34 3 -80 8 -102 10 -22 2 -74 7 -115 10 -41 4 -97 9 -125 11 -61 5
-801 14 -806 10z"/>
</g>
</svg>
